<svg width="112" height="24" viewBox="0 0 112 24" fill="none" xmlns="http://www.w3.org/2000/svg">
<g clip-path="url(#clip0_5496_119)">
<path fill-rule="evenodd" clip-rule="evenodd" d="M6.44008 7.6C9.20008 7.6 10.8201 9.6 10.8201 12.2V18H8.64008V12.44C8.64008 10.96 7.78008 9.92 6.26008 9.92C5.20008 9.92 3.98008 10.52 3.76008 11.64V18H1.58008V7.86H3.68008V8.94C4.06008 7.9 5.46008 7.6 6.44008 7.6ZM18.5401 16.02C19.5801 16.02 21.0001 15.56 21.6601 14.7L22.3001 16.4C21.5201 17.72 19.9201 18.26 18.4601 18.26C15.2601 18.26 13.1201 16.04 13.1201 12.94C13.1201 9.94 15.2001 7.6 18.2001 7.6C21.2201 7.6 23.0401 10.1 23.0401 12.92C23.0401 13.22 23.0201 13.48 22.9801 13.72H15.3401C15.5601 15.44 16.9801 16.02 18.5401 16.02ZM15.4401 11.76H20.7601C20.6201 10.48 19.3601 9.86 18.2001 9.86C16.9801 9.86 15.7001 10.5 15.4401 11.76ZM33.6201 7.86L35.8401 14.78L38.4801 7.86H40.9401L36.9201 18H34.8401L32.6001 11.02L30.3801 18H28.2801L24.2601 7.86H26.6201L29.2801 14.78L31.5001 7.86H33.6201ZM45.6201 13.92L44.6601 13.42C43.1201 12.64 42.3601 11.64 42.3601 10.46C42.3601 8.58 43.8801 7.6 45.5801 7.6C45.9201 7.6 46.2601 7.64 46.5801 7.72C47.1401 7.9 47.7001 8.12 48.1401 8.52C48.3201 8.7 48.4801 8.86 48.5801 9.04L48.1801 10.98C47.4801 10.28 46.5601 9.88 45.5801 9.88C45.1601 9.88 44.5601 9.98 44.5601 10.52C44.5601 10.74 44.6401 10.92 44.8201 11.04C44.9801 11.18 45.2201 11.32 45.5201 11.48L46.5601 12.04C47.9001 12.72 49.0201 13.52 49.0201 15.16C49.0201 17.24 47.3001 18.26 45.4401 18.26C44.1801 18.26 42.7001 17.64 42.0801 16.48L42.6601 14.62C43.3801 15.52 44.4001 16.02 45.5601 16.02C46.1201 16.02 46.8601 15.86 46.8601 15.16C46.8601 14.9 46.7601 14.68 46.5401 14.5C46.3201 14.32 46.0001 14.12 45.6201 13.92ZM59.6201 7.86L61.8401 14.78L64.4801 7.86H66.9401L62.9201 18H60.8401L58.6001 11.02L56.3801 18H54.2801L50.2601 7.86H52.6201L55.2801 14.78L57.5001 7.86H59.6201ZM69.2401 11.22L68.6801 9.4C69.5201 8.18 71.1001 7.6 72.5401 7.6C75.1001 7.6 76.9601 8.88 76.9601 11.58V18H74.8601V17.12C74.6201 17.48 74.0601 17.78 73.6601 17.94C73.1801 18.16 72.5201 18.26 72.0001 18.26C69.9201 18.26 68.1601 17.12 68.1601 14.94C68.1601 12.66 70.1801 11.66 72.1801 11.66C72.9601 11.66 74.2001 11.82 74.7801 12.4V11.98C74.7801 11.28 74.5601 10.8 74.0201 10.36C73.8001 10.2 73.5201 10.08 73.2201 10C72.9201 9.94 72.6001 9.9 72.2601 9.9C71.1801 9.9 69.9001 10.3 69.2401 11.22ZM74.7801 15.12V14.38C74.4201 13.76 73.2001 13.62 72.5601 13.62C71.7601 13.62 70.3601 13.78 70.3601 14.86C70.3601 15.9 71.7801 16.1 72.5601 16.1C73.2801 16.1 74.4201 15.82 74.7801 15.12ZM85.0001 18H82.8801L78.7601 7.86H81.1001L83.9201 15L86.7601 7.86H89.1401L85.0001 18ZM95.8001 16.02C96.8401 16.02 98.2601 15.56 98.9201 14.7L99.5601 16.4C98.7801 17.72 97.1801 18.26 95.7201 18.26C92.5201 18.26 90.3801 16.04 90.3801 12.94C90.3801 9.94 92.4601 7.6 95.4601 7.6C98.4801 7.6 100.3 10.1 100.3 12.92C100.3 13.22 100.28 13.48 100.24 13.72H92.6001C92.8201 15.44 94.2401 16.02 95.8001 16.02ZM92.7001 11.76H98.0201C97.8801 10.48 96.6201 9.86 95.4601 9.86C94.2401 9.86 92.9601 10.5 92.7001 11.76Z" fill="#222222"/>
<circle cx="108" cy="7" r="4" fill="#005AFF"/>
</g>
<defs>
<clipPath id="clip0_5496_119">
<rect width="112" height="24" fill="white"/>
</clipPath>
</defs>
</svg>
