<svg width="0" height="0" class="svg-sprite">
  <symbol fill="none" xmlns="http://www.w3.org/2000/svg" viewBox="0 0 16 16" id="sprite-icon-constructor">
    <path d="M6.22222 0H0.888889C0.653141 0 0.427048 0.0936505 0.260349 0.260349C0.0936505 0.427048 0 0.653141 0 0.888889V6.22222C0 6.45797 0.0936505 6.68406 0.260349 6.85076C0.427048 7.01746 0.653141 7.11111 0.888889 7.11111H6.22222C6.45797 7.11111 6.68406 7.01746 6.85076 6.85076C7.01746 6.68406 7.11111 6.45797 7.11111 6.22222V0.888889C7.11111 0.653141 7.01746 0.427048 6.85076 0.260349C6.68406 0.0936505 6.45797 0 6.22222 0V0ZM15.1111 0H9.77778C9.54203 0 9.31594 0.0936505 9.14924 0.260349C8.98254 0.427048 8.88889 0.653141 8.88889 0.888889V6.22222C8.88889 6.45797 8.98254 6.68406 9.14924 6.85076C9.31594 7.01746 9.54203 7.11111 9.77778 7.11111H15.1111C15.3469 7.11111 15.573 7.01746 15.7397 6.85076C15.9064 6.68406 16 6.45797 16 6.22222V0.888889C16 0.653141 15.9064 0.427048 15.7397 0.260349C15.573 0.0936505 15.3469 0 15.1111 0V0ZM6.22222 8.88889H0.888889C0.653141 8.88889 0.427048 8.98254 0.260349 9.14924C0.0936505 9.31594 0 9.54203 0 9.77778V15.1111C0 15.3469 0.0936505 15.573 0.260349 15.7397C0.427048 15.9064 0.653141 16 0.888889 16H6.22222C6.45797 16 6.68406 15.9064 6.85076 15.7397C7.01746 15.573 7.11111 15.3469 7.11111 15.1111V9.77778C7.11111 9.54203 7.01746 9.31594 6.85076 9.14924C6.68406 8.98254 6.45797 8.88889 6.22222 8.88889ZM13.3333 9.77778H11.5556V11.5556H9.77778V13.3333H11.5556V15.1111H13.3333V13.3333H15.1111V11.5556H13.3333V9.77778Z" fill="currentColor"></path>
  </symbol>
  <symbol fill="none" xmlns="http://www.w3.org/2000/svg" viewBox="0 0 16 16" id="sprite-icon-attachment">
    <path fill-rule="evenodd" clip-rule="evenodd" d="M4 16H12C13.1046 16 14 15.1046 14 14V7H9C7.89543 7 7 6.10457 7 5V0H4C2.89543 0 2 0.895431 2 2V14C2 15.1046 2.89543 16 4 16ZM14 5L9 0V5H14Z" fill="currentColor"></path>
  </symbol>
  <symbol fill="none" xmlns="http://www.w3.org/2000/svg" viewBox="0 0 10 8" id="sprite-icon-check-small">
    <path d="M7.74668 0.751106C8.16151 0.336281 8.83407 0.336281 9.24889 0.751106V0.751106C9.66372 1.16593 9.66372 1.83849 9.24889 2.25332L4.37933 7.12288C3.9888 7.51341 3.35564 7.51341 2.96511 7.12288L0.751106 4.90888C0.336282 4.49405 0.336281 3.82149 0.751106 3.40666V3.40666C1.16593 2.99184 1.83849 2.99184 2.25332 3.40666L3.67222 4.82557L7.74668 0.751106Z" fill="currentColor"></path>
  </symbol>
  <symbol fill="none" xmlns="http://www.w3.org/2000/svg" viewBox="0 0 16 16" id="sprite-icon-iframe">
    <path
      d="M7.75 3.75V2.25M7.75 13.75V12.25M3.75 8.25H2.25M13.75 8.25H12.25M10.8284 4.81802L11.8891 3.75736M3.75736 11.8891L4.81802 10.8284M4.81802 5.17157L3.75736 4.11091M11.8891 12.2426L10.8284 11.182M10.5 8C10.5 9.38071 9.38071 10.5 8 10.5C6.61929 10.5 5.5 9.38071 5.5 8C5.5 6.61929 6.61929 5.5 8 5.5C9.38071 5.5 10.5 6.61929 10.5 8Z"
      stroke="currentColor" stroke-width="1.5" stroke-linecap="round"></path>
  </symbol>
  <symbol fill="none" xmlns="http://www.w3.org/2000/svg" viewBox="0 0 16 16" id="sprite-icon-error-small">
    <path
      d="M8 0C3.576 0 0 3.576 0 8C0 12.424 3.576 16 8 16C12.424 16 16 12.424 16 8C16 3.576 12.424 0 8 0ZM12 10.872L10.872 12L8 9.128L5.128 12L4 10.872L6.872 8L4 5.128L5.128 4L8 6.872L10.872 4L12 5.128L9.128 8L12 10.872Z"
      fill="currentColor"></path>
  </symbol>
  <symbol fill="none" xmlns="http://www.w3.org/2000/svg" viewBox="0 0 16 16" id="sprite-icon-world">
    <path
      d="M8.00001 1.33337C6.68147 1.33337 5.39254 1.72437 4.29621 2.45691C3.19988 3.18945 2.3454 4.23064 1.84082 5.44882C1.33623 6.66699 1.20421 8.00744 1.46144 9.30064C1.71868 10.5938 2.35362 11.7817 3.28597 12.7141C4.21832 13.6464 5.4062 14.2814 6.69941 14.5386C7.99262 14.7958 9.33306 14.6638 10.5512 14.1592C11.7694 13.6547 12.8106 12.8002 13.5431 11.7038C14.2757 10.6075 14.6667 9.31858 14.6667 8.00004C14.6667 7.12456 14.4942 6.25765 14.1592 5.44882C13.8242 4.63998 13.3331 3.90505 12.7141 3.286C12.095 2.66694 11.3601 2.17588 10.5512 1.84084C9.7424 1.50581 8.87549 1.33337 8.00001 1.33337V1.33337ZM3.33335 10.5334C3.76897 10.6466 4.21663 10.707 4.66668 10.7134C5.41974 10.7341 6.15762 10.4991 6.76001 10.0467C7.90001 9.15337 7.90001 8.00671 7.90001 7.08671C7.84945 6.55423 7.9343 6.01761 8.14668 5.52671C8.33962 5.26399 8.59669 5.05511 8.89335 4.92004C9.10531 4.79618 9.31008 4.6604 9.50668 4.51337C9.92098 4.18612 10.2427 3.75641 10.44 3.26671C11.378 3.74661 12.1528 4.49359 12.6667 5.41337C11.7133 5.54671 10.36 5.86004 10.0933 7.10004C10.0332 7.39631 10.0019 7.69773 10 8.00004C10.0216 8.33794 9.95497 8.67565 9.80668 8.98004L9.74001 9.09337C9.30668 9.81337 8.82001 10.6334 9.48001 11.76C9.56001 11.9 9.64668 12.0334 9.73335 12.1667C9.91078 12.3717 10.0304 12.6202 10.08 12.8867C9.42434 13.1757 8.71653 13.3277 8.00001 13.3334C7.04243 13.3286 6.10379 13.0661 5.28266 12.5734C4.46153 12.0807 3.78819 11.3761 3.33335 10.5334V10.5334Z"
      fill="currentColor"></path>
  </symbol>
  <symbol fill="none" xmlns="http://www.w3.org/2000/svg" viewBox="0 0 16 14" id="sprite-icon-warning">
    <path
      d="M14.9489 10.6237L9.82661 1.20766C9.00363 -0.177836 6.99746 -0.179677 6.17337 1.20766L1.05135 10.6237C0.210044 12.0395 1.22861 13.8322 2.87754 13.8322H13.1223C14.7698 13.8322 15.7902 12.0409 14.9489 10.6237ZM7.99999 12.133C7.53162 12.133 7.15036 11.7517 7.15036 11.2833C7.15036 10.815 7.53162 10.4337 7.99999 10.4337C8.46836 10.4337 8.84962 10.815 8.84962 11.2833C8.84962 11.7517 8.46836 12.133 7.99999 12.133ZM8.84962 8.73445C8.84962 9.20282 8.46836 9.58408 7.99999 9.58408C7.53162 9.58408 7.15036 9.20282 7.15036 8.73445V4.48629C7.15036 4.01792 7.53162 3.63666 7.99999 3.63666C8.46836 3.63666 8.84962 4.01792 8.84962 4.48629V8.73445Z"
      fill="currentColor"></path>
  </symbol>
  <symbol fill="none" xmlns="http://www.w3.org/2000/svg" viewBox="0 0 17 16" id="sprite-icon-visibility-on">
    <path fill-rule="evenodd" clip-rule="evenodd"
      d="M7.96534 2.5C11.2987 2.5 13.9862 4.30842 16.0279 7.92527C13.9862 11.6418 11.2987 13.5 7.96534 13.5C4.632 13.5 1.97689 11.6418 0 7.92527C1.97689 4.30842 4.632 2.5 7.96534 2.5ZM7.96534 12.5C10.76 12.5 13.041 11.0173 14.8725 7.93229C13.044 4.94019 10.764 3.5 7.96534 3.5C5.16751 3.5 2.91839 4.93894 1.14634 7.93212C2.92137 11.0186 5.17151 12.5 7.96534 12.5ZM7.98703 10.9565C6.33018 10.9565 4.98703 9.61334 4.98703 7.95649C4.98703 6.29964 6.33018 4.95649 7.98703 4.95649C9.64389 4.95649 10.987 6.29964 10.987 7.95649C10.987 9.61334 9.64389 10.9565 7.98703 10.9565ZM7.98703 9.95649C9.0916 9.95649 9.98703 9.06106 9.98703 7.95649C9.98703 6.85192 9.0916 5.95649 7.98703 5.95649C6.88246 5.95649 5.98703 6.85192 5.98703 7.95649C5.98703 9.06106 6.88246 9.95649 7.98703 9.95649Z"
      fill="currentColor"></path>
  </symbol>
  <symbol fill="none" xmlns="http://www.w3.org/2000/svg" viewBox="0 0 16 16" id="sprite-icon-video">
    <g clip-path="url(#clip0_3929_133773)">
      <path
        d="M9.08333 3.5C9.38426 3.5 9.64005 3.60937 9.85069 3.82813C10.0613 4.04688 10.1667 4.3125 10.1667 4.625V11.375C10.1667 11.6875 10.0613 11.9531 9.85069 12.1719C9.64005 12.3906 9.38426 12.5 9.08333 12.5H2.58333C2.28241 12.5 2.02662 12.3906 1.81597 12.1719C1.60532 11.9531 1.5 11.6875 1.5 11.375V4.625C1.5 4.3125 1.60532 4.04688 1.81597 3.82813C2.02662 3.60937 2.28241 3.5 2.58333 3.5H9.08333ZM13.3715 4.39063C13.6123 4.21875 13.8605 4.20313 14.1163 4.34375C14.3721 4.46875 14.5 4.6875 14.5 5V11C14.5 11.3125 14.3646 11.5391 14.0938 11.6797C13.838 11.8047 13.5972 11.7813 13.3715 11.6094L10.8889 9.85156V6.14844L13.3715 4.39063Z"
        fill="currentColor"></path>
    </g>
    <defs>
      <clipPath id="sprite-icon-clip0_3929_133773">
        <rect width="16" height="16" fill="white"></rect>
      </clipPath>
    </defs>
  </symbol>
  <symbol fill="none" xmlns="http://www.w3.org/2000/svg" viewBox="0 0 16 16" id="sprite-icon-user">
    <path fill-rule="evenodd" clip-rule="evenodd"
      d="M5 5C5 6.66 6.34224 8 8.00501 8C9.66778 8 11 6.66 11 5C11 3.34 9.66778 2 8.00501 2C6.34224 2 5 3.34 5 5ZM14 14.5C14 11.4624 11.3137 9 8 9C4.68629 9 2 11.4624 2 14.5V15H14V14.5Z"
      fill="currentColor"></path>
  </symbol>
  <symbol fill="none" xmlns="http://www.w3.org/2000/svg" viewBox="0 0 16 16" id="sprite-icon-unpload">
    <path fill-rule="evenodd" clip-rule="evenodd"
      d="M8 0.585815L11.7071 4.29292L10.2929 5.70714L9 4.41424V11H7V4.41424L5.70711 5.70714L4.29289 4.29292L8 0.585815ZM3 8.00003V12.08C3 12.6255 3.41544 13 3.84615 13H12.1538C12.5846 13 13 12.6255 13 12.08V8.00003H15V12.08C15 13.6554 13.7623 15 12.1538 15H3.84615C2.23766 15 1 13.6554 1 12.08L1 8.00003H3Z"
      fill="currentColor"></path>
  </symbol>
  <symbol fill="none" xmlns="http://www.w3.org/2000/svg" viewBox="0 0 16 16" id="sprite-icon-underline">
    <path
      d="M13 7.28571C13 9.88643 10.7583 12 8 12C5.24167 12 3 9.88643 3 7.28571V1H5.08333V7.28571C5.08333 8.80214 6.39167 10.0357 8 10.0357C9.60833 10.0357 10.9167 8.80214 10.9167 7.28571V1H13V7.28571Z"
      fill="currentColor"></path>
    <path d="M3 15V13H13V15H3Z" fill="currentColor"></path>
  </symbol>
  <symbol fill="none" xmlns="http://www.w3.org/2000/svg" viewBox="0 0 16 16" id="sprite-icon-tune">
    <g clip-path="url(#clip0_145_12)">
      <path
        d="M0 4.77778V6.55556H8.88889V4.77778H0ZM3.55556 8.33333V10.1111H0V11.8889H3.55556V13.6667H5.33333V8.33333H3.55556ZM16 11.8889V10.1111H7.11111V11.8889H16ZM10.6667 8.33333H12.4444V6.55556H16V4.77778H12.4444V3H10.6667V8.33333Z"
        fill="currentColor"></path>
    </g>
    <defs>
      <clipPath id="sprite-icon-clip0_145_12">
        <rect width="16" height="16" fill="white"></rect>
      </clipPath>
    </defs>
  </symbol>
  <symbol fill="none" xmlns="http://www.w3.org/2000/svg" viewBox="0 0 16 16" id="sprite-icon-topic">
    <path fill-rule="evenodd" clip-rule="evenodd"
      d="M8 0C3.58172 0 0 3.58172 0 8C0 12.4183 3.58172 16 8 16C10.1217 16 12.1566 15.1571 13.6569 13.6569C15.1571 12.1566 16 10.1217 16 8C16 3.58172 12.4183 0 8 0ZM10.6066 3.10385C10.6578 3.10544 10.7104 3.11034 10.7637 3.11851C11.1908 3.18386 11.5032 3.44123 11.4643 3.69542L11.2304 5.22371L12.7762 5.2218C13.0333 5.22151 13.2407 5.56911 13.2412 6.00109C13.2417 6.43307 13.0353 6.78103 12.7781 6.78133L10.9917 6.78356L10.6201 9.21066L12.1707 9.20907C12.4278 9.20878 12.6352 9.55639 12.6357 9.98836C12.6362 10.4203 12.4294 10.7683 12.1723 10.7686L10.3813 10.7705L10.1104 12.5408C10.0715 12.7949 9.69625 12.9472 9.26923 12.8818C8.84222 12.8165 8.52977 12.5591 8.56866 12.3049L8.80325 10.7721L6.34774 10.775L6.07747 12.5407C6.03857 12.7949 5.66367 12.9471 5.23668 12.8817C4.80966 12.8164 4.49689 12.559 4.5358 12.3048L4.76974 10.7765L3.22391 10.7785C2.96677 10.7787 2.75939 10.4311 2.75888 9.99917C2.7584 9.56719 2.96486 9.21922 3.222 9.21893L5.00842 9.2167L5.38005 6.78959L3.82943 6.79119C3.5723 6.79147 3.36492 6.44387 3.36441 6.0119C3.36393 5.57992 3.57071 5.23195 3.82783 5.23166L5.6185 5.22974L5.88974 3.45947C5.92378 3.23708 6.21533 3.09289 6.57373 3.1041C6.62493 3.1057 6.67749 3.11027 6.73086 3.11844C7.15788 3.18379 7.47032 3.44116 7.43143 3.69535L7.19685 5.22811L9.65235 5.22524L9.92262 3.45954C9.95666 3.23715 10.2482 3.09269 10.6066 3.10385ZM6.9578 6.78809L9.41362 6.78522L9.0423 9.21233L6.5868 9.2152L6.9578 6.78809Z"
      fill="currentColor"></path>
  </symbol>
  <symbol fill="none" xmlns="http://www.w3.org/2000/svg" viewBox="0 0 16 16" id="sprite-icon-team">
    <path fill-rule="evenodd" clip-rule="evenodd"
      d="M4.50417 6C3.11853 6 2 4.88333 2 3.5C2 2.11667 3.11853 1 4.50417 1C5.88982 1 7 2.11667 7 3.5C7 4.88333 5.88982 6 4.50417 6ZM16 12.5C16 9.46243 13.5376 7 10.5 7C7.46243 7 5 9.46243 5 12.5V15H16V12.5ZM0 15H3V12.5C3 10.3274 3.92378 8.37059 5.39997 7.00089C2.40856 7.05424 0 9.49585 0 12.5V15ZM8 3.5C8 4.88333 9.11853 6 10.5042 6C11.8898 6 13 4.88333 13 3.5C13 2.11667 11.8898 1 10.5042 1C9.11853 1 8 2.11667 8 3.5Z"
      fill="currentColor"></path>
  </symbol>
  <symbol fill="none" xmlns="http://www.w3.org/2000/svg" viewBox="0 0 16 16" id="sprite-icon-tag">
    <path fill-rule="evenodd" clip-rule="evenodd"
      d="M8.34501 15.6107C8.86524 16.1298 9.71044 16.1298 10.2342 15.6107L15.2991 9.99502C15.8229 9.47244 16.2943 8.15854 15.7741 7.63904L7.67027 0.324137C7.2814 -0.0642638 3.09634 -0.0155153 1.12099 0.0309658C0.556346 0.0433457 0.083157 0.514551 0.0662931 1.0774C0.0201106 2.6194 -0.0464813 5.52889 0.0476565 7.0483C0.083157 7.60984 0.57321 8.33921 0.98517 8.72448L8.34501 15.6107ZM2.1881 2.26469C2.62933 1.82582 3.34316 1.82582 3.78526 2.26469C4.22563 2.70533 4.22563 3.41697 3.78526 3.8567C3.34402 4.29648 2.63024 4.29648 2.1881 3.8567C1.74777 3.41697 1.74777 2.70574 2.1881 2.26469Z"
      fill="currentColor"></path>
  </symbol>
  <symbol fill="none" xmlns="http://www.w3.org/2000/svg" viewBox="0 0 16 16" id="sprite-icon-table">
    <g clip-path="url(#clip0_3929_133846)">
      <path d="M1 1.77783H7.22222V4.88894H1V1.77783Z" fill="currentColor"></path>
      <path d="M1 6.4445H7.22222V9.55561H1V6.4445Z" fill="currentColor"></path>
      <path d="M1 11.1112H7.22222V14.2223H1V11.1112Z" fill="currentColor"></path>
      <path d="M8.77759 11.1112H14.9998V14.2223H8.77759V11.1112Z" fill="currentColor"></path>
      <path d="M8.77759 6.4445H14.9998V9.55561H8.77759V6.4445Z" fill="currentColor"></path>
      <path d="M8.77759 1.77783H14.9998V4.88894H8.77759V1.77783Z" fill="currentColor"></path>
    </g>
    <defs>
      <clipPath id="sprite-icon-clip0_3929_133846">
        <rect width="16" height="16" fill="white"></rect>
      </clipPath>
    </defs>
  </symbol>
  <symbol fill="none" xmlns="http://www.w3.org/2000/svg" viewBox="0 0 16 16" id="sprite-icon-strikethrough">
    <g clip-path="url(#clip0_3929_133822)">
      <path
        d="M3.99466 5.26183C3.99466 3.09527 6.01688 2 8.18688 2C9.46244 2 10.5202 2.39174 11.2202 3.02332C11.8191 3.54297 12.3558 4.4064 12.3558 5.61359H10.0147C10.0147 5.36576 9.97577 5.14191 9.89799 4.93404C9.67244 4.2465 8.96466 3.91073 8.14799 3.91073C6.70132 3.91073 6.32799 4.72618 6.32799 5.26982C6.32799 5.65356 6.52244 5.97335 6.90355 6.23718C7.1991 6.43704 7.50244 6.62092 8.00021 6.7968H4.41466C4.25132 6.52498 3.99466 6.08528 3.99466 5.26183ZM15.0002 9.1952V7.59627H1.00021V9.1952H8.48244C9.37688 9.55496 10.0069 9.7948 10.0069 10.7702C10.0069 11.5696 9.37688 12.1053 8.23355 12.1053C7.03577 12.1053 5.95466 11.6736 5.95466 10.0986H3.64466C3.64466 10.5383 3.70688 11.002 3.83132 11.3618C4.46132 13.1925 6.39021 14 8.24133 14C10.0069 14 12.3635 13.2885 12.3635 10.7622C12.3635 10.5223 12.3558 9.83478 11.9902 9.21119H15.0002V9.1952Z"
        fill="currentColor"></path>
    </g>
    <defs>
      <clipPath id="sprite-icon-clip0_3929_133822">
        <rect width="16" height="16" fill="white"></rect>
      </clipPath>
    </defs>
  </symbol>
  <symbol fill="none" xmlns="http://www.w3.org/2000/svg" viewBox="0 0 16 16" id="sprite-icon-stat">
    <path
      d="M15 3.5C15 2.67157 14.3284 2 13.5 2C12.6716 2 12 2.67157 12 3.5V12.5C12 13.3284 12.6716 14 13.5 14C14.3284 14 15 13.3284 15 12.5V3.5Z"
      fill="currentColor"></path>
    <path
      d="M8.5 6C9.32843 6 10 6.67157 10 7.5V12.5C10 13.3284 9.32843 14 8.5 14C7.67157 14 7 13.3284 7 12.5V7.5C7 6.67157 7.67157 6 8.5 6Z"
      fill="currentColor"></path>
    <path
      d="M3.5 10C4.32843 10 5 10.6716 5 11.5V12.5C5 13.3284 4.32843 14 3.5 14C2.67157 14 2 13.3284 2 12.5V11.5C2 10.6716 2.67157 10 3.5 10Z"
      fill="currentColor"></path>
  </symbol>
  <symbol fill="none" xmlns="http://www.w3.org/2000/svg" viewBox="0 0 16 16" id="sprite-icon-social">
    <path fill-rule="evenodd" clip-rule="evenodd"
      d="M15 4C15 5.65685 13.6569 7 12 7C11.0244 7 10.1576 6.53434 9.60973 5.81317L6.88525 7.17541C6.95999 7.4374 7 7.71403 7 8C7 8.28597 6.95999 8.5626 6.88525 8.82459L9.60973 10.1868C10.1576 9.46566 11.0244 9 12 9C13.6569 9 15 10.3431 15 12C15 13.6569 13.6569 15 12 15C10.3831 15 9.0649 13.7208 9.00233 12.1192L5.70348 10.4698C5.21961 10.8042 4.63268 11 4 11C2.34315 11 1 9.65685 1 8C1 6.34315 2.34315 5 4 5C4.63268 5 5.21961 5.19585 5.70348 5.53022L9.00233 3.8808C9.0649 2.2792 10.3831 1 12 1C13.6569 1 15 2.34315 15 4ZM5 8C5 8.55228 4.55228 9 4 9C3.44772 9 3 8.55228 3 8C3 7.44772 3.44772 7 4 7C4.55228 7 5 7.44772 5 8ZM12 5C12.5523 5 13 4.55228 13 4C13 3.44772 12.5523 3 12 3C11.4477 3 11 3.44772 11 4C11 4.55228 11.4477 5 12 5ZM13 12C13 12.5523 12.5523 13 12 13C11.4477 13 11 12.5523 11 12C11 11.4477 11.4477 11 12 11C12.5523 11 13 11.4477 13 12Z"
      fill="currentColor"></path>
  </symbol>
  <symbol fill="none" xmlns="http://www.w3.org/2000/svg" viewBox="0 0 16 16" id="sprite-icon-settings">
    <path fill-rule="evenodd" clip-rule="evenodd"
      d="M13.7776 8C13.7776 8.27 13.7576 8.53 13.7276 8.78L15.3976 10.1C15.5576 10.22 15.5976 10.43 15.4976 10.61L13.8976 13.38C13.7976 13.56 13.5876 13.63 13.4076 13.56L11.4176 12.76C11.0076 13.07 10.5576 13.34 10.0676 13.54L9.7676 15.66C9.74759 15.86 9.57759 16 9.37759 16H6.1776C5.9776 16 5.8176 15.86 5.7776 15.66L5.4776 13.54C4.9876 13.34 4.5476 13.08 4.1276 12.76L2.1376 13.56C1.9576 13.62 1.7476 13.56 1.6476 13.38L0.0475953 10.61C-0.0424047 10.44 -0.00240467 10.22 0.147595 10.1L1.8376 8.78C1.7976 8.53 1.7776 8.26 1.7776 8C1.7776 7.74 1.8076 7.47 1.8476 7.22L0.157595 5.9C-0.00240467 5.78 -0.0424047 5.57 0.0575953 5.39L1.6576 2.62C1.7576 2.44 1.9676 2.37 2.1476 2.44L4.1376 3.24C4.5476 2.93 4.9976 2.66 5.4876 2.46L5.7876 0.34C5.8176 0.14 5.9776 0 6.1776 0H9.37759C9.57759 0 9.7476 0.14 9.7776 0.34L10.0776 2.46C10.5676 2.66 11.0076 2.92 11.4276 3.24L13.4176 2.44C13.5976 2.38 13.8076 2.44 13.9076 2.62L15.5076 5.39C15.5976 5.56 15.5576 5.78 15.4076 5.9L13.7176 7.22C13.7576 7.47 13.7776 7.73 13.7776 8ZM4.7776 8C4.7776 9.65 6.1276 11 7.7776 11C9.4276 11 10.7776 9.65 10.7776 8C10.7776 6.35 9.4276 5 7.7776 5C6.1276 5 4.7776 6.35 4.7776 8Z"
      fill="currentColor"></path>
  </symbol>
  <symbol fill="none" xmlns="http://www.w3.org/2000/svg" viewBox="0 0 16 16" id="sprite-icon-search">
    <path fill-rule="evenodd" clip-rule="evenodd"
      d="M10.8907 9.47653C11.5892 8.49572 12 7.29583 12 6C12 2.68629 9.31371 0 6 0C2.68629 0 0 2.68629 0 6C0 9.31371 2.68629 12 6 12C7.29583 12 8.49572 11.5892 9.47653 10.8907L14.2929 15.7071L15.7071 14.2929L10.8907 9.47653ZM6 10C3.79086 10 2 8.20914 2 6C2 3.79086 3.79086 2 6 2C8.20914 2 10 3.79086 10 6C10 8.20914 8.20914 10 6 10Z"
      fill="currentColor"></path>
  </symbol>
  <symbol fill="none" xmlns="http://www.w3.org/2000/svg" viewBox="0 0 16 16" id="sprite-icon-rotate-right">
    <g clip-path="url(#clip0_1350_959)">
      <path
        d="M11.0323 3.84575L7.18652 0V2.59482C3.85636 3.00898 1.26999 5.84892 1.26999 9.29741C1.26999 12.7459 3.84791 15.5858 7.18652 16V14.2927C4.7861 13.887 2.96043 11.8077 2.96043 9.29741C2.96043 6.78711 4.7861 4.70787 7.18652 4.30217V7.60697L11.0323 3.84575ZM14.7343 8.45219C14.5906 7.27734 14.1258 6.14474 13.3651 5.16429L12.1649 6.3645C12.6213 6.99841 12.9087 7.71685 13.027 8.45219H14.7343ZM8.87696 14.2842V15.9915C10.0518 15.8479 11.1929 15.3914 12.1733 14.6307L10.9562 13.4136C10.3223 13.87 9.6123 14.1659 8.87696 14.2842ZM12.1649 12.2388L13.3651 13.4305C14.1258 12.4501 14.5906 11.3175 14.7343 10.1426H13.027C12.9087 10.878 12.6213 11.5964 12.1649 12.2388Z"
        fill="currentColor"></path>
    </g>
    <defs>
      <clipPath id="sprite-icon-clip0_1350_959">
        <rect width="16" height="16" fill="white"></rect>
      </clipPath>
    </defs>
  </symbol>
  <symbol fill="none" xmlns="http://www.w3.org/2000/svg" viewBox="0 0 16 16" id="sprite-icon-rotate-left">
    <g clip-path="url(#clip0_1350_958)">
      <path
        d="M3.83946 6.3645L2.6477 5.16429C1.887 6.14474 1.41368 7.27734 1.26999 8.45219H2.97733C3.09566 7.71685 3.39149 6.99841 3.83946 6.3645V6.3645ZM2.97733 10.1426H1.26999C1.41368 11.3175 1.87855 12.4501 2.63924 13.4305L3.831 12.2303C3.39149 11.5964 3.09566 10.8864 2.97733 10.1426V10.1426ZM3.831 14.6392C4.81146 15.3999 5.9525 15.8563 7.12736 16V14.2842C6.39202 14.1574 5.68203 13.87 5.04812 13.4136L3.831 14.6392ZM8.8178 2.59482V0L4.97205 3.84575L8.8178 7.60697V4.30217C11.2182 4.70787 13.0439 6.78711 13.0439 9.29741C13.0439 11.8077 11.2182 13.887 8.8178 14.2927V16C12.1564 15.5858 14.7343 12.7459 14.7343 9.29741C14.7343 5.84892 12.1564 3.00898 8.8178 2.59482Z"
        fill="currentColor"></path>
    </g>
    <defs>
      <clipPath id="sprite-icon-clip0_1350_958">
        <rect width="16" height="16" fill="white"></rect>
      </clipPath>
    </defs>
  </symbol>
  <symbol fill="none" xmlns="http://www.w3.org/2000/svg" viewBox="0 0 16 16" id="sprite-icon-refresh">
    <path
      d="M3.05754 3.05625C4.32708 1.7875 6.06942 1 8.00438 1C11.8743 1 15 4.1325 15 8C15 11.8675 11.8743 15 8.00438 15C4.73859 15 2.01563 12.7687 1.2364 9.75H3.05754C3.77548 11.7887 5.7192 13.25 8.00438 13.25C10.9024 13.25 13.2577 10.8963 13.2577 8C13.2577 5.10375 10.9024 2.75 8.00438 2.75C6.55097 2.75 5.25516 3.35375 4.30957 4.3075L7.12883 7.125H1V1L3.05754 3.05625Z"
      fill="currentColor"></path>
  </symbol>
  <symbol fill="none" xmlns="http://www.w3.org/2000/svg" viewBox="0 0 16 16" id="sprite-icon-quote">
    <path fill-rule="evenodd" clip-rule="evenodd" d="M2 13H5L7 9V3H1V9H4L2 13ZM10 13H13L15 9V3H9V9H12L10 13Z"
      fill="currentColor"></path>
  </symbol>
  <symbol fill="none" xmlns="http://www.w3.org/2000/svg" viewBox="0 0 16 16" id="sprite-icon-quiz">
    <path
      d="M8 1.5C8 1.10218 8.15804 0.720644 8.43934 0.43934C8.72064 0.158035 9.10218 0 9.5 0C9.89782 0 10.2794 0.158035 10.5607 0.43934C10.842 0.720644 11 1.10218 11 1.5V2C11 2.26522 11.1054 2.51957 11.2929 2.70711C11.4804 2.89464 11.7348 3 12 3H15C15.2652 3 15.5196 3.10536 15.7071 3.29289C15.8946 3.48043 16 3.73478 16 4V7C16 7.26522 15.8946 7.51957 15.7071 7.70711C15.5196 7.89464 15.2652 8 15 8H14.5C14.1022 8 13.7206 8.15804 13.4393 8.43934C13.158 8.72064 13 9.10218 13 9.5C13 9.89782 13.158 10.2794 13.4393 10.5607C13.7206 10.842 14.1022 11 14.5 11H15C15.2652 11 15.5196 11.1054 15.7071 11.2929C15.8946 11.4804 16 11.7348 16 12V15C16 15.2652 15.8946 15.5196 15.7071 15.7071C15.5196 15.8946 15.2652 16 15 16H12C11.7348 16 11.4804 15.8946 11.2929 15.7071C11.1054 15.5196 11 15.2652 11 15V14.5C11 14.1022 10.842 13.7206 10.5607 13.4393C10.2794 13.158 9.89782 13 9.5 13C9.10218 13 8.72064 13.158 8.43934 13.4393C8.15804 13.7206 8 14.1022 8 14.5V15C8 15.2652 7.89464 15.5196 7.70711 15.7071C7.51957 15.8946 7.26522 16 7 16H4C3.73478 16 3.48043 15.8946 3.29289 15.7071C3.10536 15.5196 3 15.2652 3 15V12C3 11.7348 2.89464 11.4804 2.70711 11.2929C2.51957 11.1054 2.26522 11 2 11H1.5C1.10218 11 0.720644 10.842 0.43934 10.5607C0.158035 10.2794 0 9.89782 0 9.5C0 9.10218 0.158035 8.72064 0.43934 8.43934C0.720644 8.15804 1.10218 8 1.5 8H2C2.26522 8 2.51957 7.89464 2.70711 7.70711C2.89464 7.51957 3 7.26522 3 7V4C3 3.73478 3.10536 3.48043 3.29289 3.29289C3.48043 3.10536 3.73478 3 4 3H7C7.26522 3 7.51957 2.89464 7.70711 2.70711C7.89464 2.51957 8 2.26522 8 2V1.5Z"
      fill="currentColor"></path>
  </symbol>
  <symbol fill="none" xmlns="http://www.w3.org/2000/svg" viewBox="0 0 16 16" id="sprite-icon-push">
    <path fill-rule="evenodd" clip-rule="evenodd"
      d="M10 3C10 4.65685 11.3431 6 13 6C14.6569 6 16 4.65685 16 3C16 1.34315 14.6569 0 13 0C11.3431 0 10 1.34315 10 3ZM8 3C8 2.2889 8.14845 1.61246 8.41604 1H3C1.34315 1 0 2.34315 0 4V13C0 14.6569 1.34315 16 3 16H12C13.6569 16 15 14.6569 15 13V7.58396C14.3875 7.85155 13.7111 8 13 8V13C13 13.5523 12.5523 14 12 14H3C2.44772 14 2 13.5523 2 13V4C2 3.44772 2.44772 3 3 3H8Z"
      fill="currentColor"></path>
  </symbol>
  <symbol fill="none" xmlns="http://www.w3.org/2000/svg" viewBox="0 0 16 16" id="sprite-icon-post">
    <path fill-rule="evenodd" clip-rule="evenodd"
      d="M3 0C1.89543 0 1 0.895431 1 2V14C1 15.1046 1.89543 16 3 16H13C14.1046 16 15 15.1046 15 14V2C15 0.895431 14.1046 0 13 0H3ZM12 7H4V9H12V7ZM4 3H12V5H4V3ZM8 11H4V13H8V11Z"
      fill="currentColor"></path>
  </symbol>
  <symbol fill="none" xmlns="http://www.w3.org/2000/svg" viewBox="0 0 16 16" id="sprite-icon-poll">
    <path
      d="M0 9C0 8.73478 0.105357 8.48043 0.292893 8.29289C0.48043 8.10536 0.734784 8 1 8H3C3.26522 8 3.51957 8.10536 3.70711 8.29289C3.89464 8.48043 4 8.73478 4 9V14C4 14.2652 3.89464 14.5196 3.70711 14.7071C3.51957 14.8946 3.26522 15 3 15H1C0.734784 15 0.48043 14.8946 0.292893 14.7071C0.105357 14.5196 0 14.2652 0 14V9ZM6 5C6 4.73478 6.10536 4.48043 6.29289 4.29289C6.48043 4.10536 6.73478 4 7 4H9C9.26522 4 9.51957 4.10536 9.70711 4.29289C9.89464 4.48043 10 4.73478 10 5V14C10 14.2652 9.89464 14.5196 9.70711 14.7071C9.51957 14.8946 9.26522 15 9 15H7C6.73478 15 6.48043 14.8946 6.29289 14.7071C6.10536 14.5196 6 14.2652 6 14V5ZM12 2C12 1.73478 12.1054 1.48043 12.2929 1.29289C12.4804 1.10536 12.7348 1 13 1H15C15.2652 1 15.5196 1.10536 15.7071 1.29289C15.8946 1.48043 16 1.73478 16 2V14C16 14.2652 15.8946 14.5196 15.7071 14.7071C15.5196 14.8946 15.2652 15 15 15H13C12.7348 15 12.4804 14.8946 12.2929 14.7071C12.1054 14.5196 12 14.2652 12 14V2Z"
      fill="currentColor"></path>
  </symbol>
  <symbol fill="none" xmlns="http://www.w3.org/2000/svg" viewBox="0 0 16 16" id="sprite-icon-plus">
    <path
      d="M8.90824 7.09175L15.9912 7.09175V8.90825L8.90824 8.90825L8.90824 15.9912L7.09174 15.9912V8.90825L0.00874698 8.90825V7.09175L7.09174 7.09175V0.00875738L8.90824 0.00875755L8.90824 7.09175Z"
      fill="currentColor"></path>
  </symbol>
  <symbol fill="none" xmlns="http://www.w3.org/2000/svg" viewBox="0 0 16 16" id="sprite-icon-plus-small">
    <path
      d="M8 2C7.44772 2 7 2.44772 7 3V7H3C2.44772 7 2 7.44772 2 8C2 8.55228 2.44772 9 3 9H7V13C7 13.5523 7.44772 14 8 14C8.55228 14 9 13.5523 9 13V9H13C13.5523 9 14 8.55228 14 8C14 7.44772 13.5523 7 13 7H9V3C9 2.44772 8.55228 2 8 2Z"
      fill="currentColor"></path>
  </symbol>
  <symbol fill="none" xmlns="http://www.w3.org/2000/svg" viewBox="0 0 16 16" id="sprite-icon-play">
    <g clip-path="url(#clip0_3024_32)">
      <path
        d="M8.00001 1.33331C4.32001 1.33331 1.33334 4.31998 1.33334 7.99998C1.33334 11.68 4.32001 14.6666 8.00001 14.6666C11.68 14.6666 14.6667 11.68 14.6667 7.99998C14.6667 4.31998 11.68 1.33331 8.00001 1.33331ZM6.33334 11V4.99998L11 7.99998L6.33334 11Z"
        fill="currentColor"></path>
    </g>
    <defs>
      <clipPath id="sprite-icon-clip0_3024_32">
        <rect width="16" height="16" fill="white"></rect>
      </clipPath>
    </defs>
  </symbol>
  <symbol fill="none" xmlns="http://www.w3.org/2000/svg" viewBox="0 0 16 16" id="sprite-icon-pin">
    <path
      d="M12.3452 9.49367C12.284 9.11607 12.0897 8.64662 11.9579 8.28473L15.4146 4.82802C14.4657 2.90968 13.0903 1.5343 11.172 0.585376L7.71529 4.04209C7.35104 3.90802 6.8855 3.7185 6.50509 3.65605C5.84384 3.54164 5.17161 3.56559 4.53136 3.72636C3.88397 3.88889 3.29718 4.21956 2.82911 4.68563L2.32503 5.18971C1.93319 5.58155 1.94642 6.23009 2.35459 6.63825L5.15107 9.43474L2.31564 12.2702C1.95245 12.6667 1.94381 13.2575 2.33987 13.6536C2.73592 14.0496 3.33329 14.0476 3.72985 13.6844L6.56529 10.8489L9.36177 13.6454C9.76994 14.0536 10.4185 14.0668 10.8103 13.675L11.3144 13.1709C11.7811 12.7026 12.1122 12.1154 12.2749 11.4674C12.4357 10.8271 12.4596 10.1549 12.3452 9.49367Z"
      fill="currentColor"></path>
  </symbol>
  <symbol fill="none" xmlns="http://www.w3.org/2000/svg" viewBox="0 0 16 16" id="sprite-icon-pic">
    <path d="M8 6C8 7.10457 7.10457 8 6 8C4.89543 8 4 7.10457 4 6C4 4.89543 4.89543 4 6 4C7.10457 4 8 4.89543 8 6Z"
      fill="currentColor"></path>
    <path fill-rule="evenodd" clip-rule="evenodd"
      d="M3 0H13C14.6569 0 16 1.34315 16 3V13C16 14.6569 14.6569 16 13 16H3C1.34315 16 0 14.6569 0 13V3C0 1.34315 1.34315 0 3 0ZM3 2C2.44772 2 2 2.44772 2 3V11.0861L2.27628 10.8336C3.0405 10.1352 4.21142 10.1354 4.97536 10.8341L5.57522 11.3828C5.95725 11.7322 6.54281 11.7323 6.92491 11.3829L9.27546 9.23386C10.0395 8.53527 11.2105 8.53527 11.9745 9.23386L14 11.0857V3C14 2.44772 13.5523 2 13 2H3Z"
      fill="currentColor"></path>
  </symbol>
  <symbol fill="none" xmlns="http://www.w3.org/2000/svg" viewBox="0 0 16 16" id="sprite-icon-photo">
    <path
      d="M8 11C9.10457 11 10 10.1046 10 9C10 7.89543 9.10457 7 8 7C6.89543 7 6 7.89543 6 9C6 10.1046 6.89543 11 8 11Z"
      fill="currentColor"></path>
    <path fill-rule="evenodd" clip-rule="evenodd"
      d="M6.23607 1C5.47852 1 4.786 1.428 4.44721 2.10557L4 3H2C0.895431 3 0 3.89543 0 5V13C0 14.1046 0.895431 15 2 15H14C15.1046 15 16 14.1046 16 13V5C16 3.89543 15.1046 3 14 3H12L11.5528 2.10557C11.214 1.428 10.5215 1 9.76393 1H6.23607ZM12 9C12 11.2091 10.2091 13 8 13C5.79086 13 4 11.2091 4 9C4 6.79086 5.79086 5 8 5C10.2091 5 12 6.79086 12 9Z"
      fill="currentColor"></path>
  </symbol>
  <symbol fill="none" xmlns="http://www.w3.org/2000/svg" viewBox="0 0 16 16" id="sprite-icon-open-in-new">
    <path
      d="M13 11V14H3V4H6V2H3C1.89543 2 1 2.89543 1 4V14C1 15.1046 1.89543 16 3 16H13C14.1046 16 15 15.1046 15 14V11H13Z"
      fill="currentColor"></path>
    <path
      d="M12.1175 3.46836L5.29297 10.2929L6.70719 11.7071L13.5304 4.88391L13.0001 7.01093V9H15.0001V2H8.00008V4H9.98055L12.1175 3.46836Z"
      fill="currentColor"></path>
  </symbol>
  <symbol fill="none" xmlns="http://www.w3.org/2000/svg" viewBox="0 0 16 16" id="sprite-icon-more">
    <path fill-rule="evenodd" clip-rule="evenodd"
      d="M8.5858 9.00001L5.29291 5.70712L6.70712 4.29291L11.4142 9.00001L6.70712 13.7071L5.29291 12.2929L8.5858 9.00001Z"
      fill="currentColor"></path>
  </symbol>
  <symbol fill="none" xmlns="http://www.w3.org/2000/svg" viewBox="0 0 16 16" id="sprite-icon-mobile">
    <path fill-rule="evenodd" clip-rule="evenodd"
      d="M2 2C2 0.895431 2.89543 0 4 0H12C13.1046 0 14 0.895431 14 2V14C14 15.1046 13.1046 16 12 16H4C2.89543 16 2 15.1046 2 14V2ZM4 3C4 2.44772 4.44772 2 5 2H11C11.5523 2 12 2.44772 12 3V13C12 13.5523 11.5523 14 11 14H5C4.44772 14 4 13.5523 4 13V3ZM8 13C8.55228 13 9 12.5523 9 12C9 11.4477 8.55228 11 8 11C7.44772 11 7 11.4477 7 12C7 12.5523 7.44772 13 8 13Z"
      fill="currentColor"></path>
  </symbol>
  <symbol fill="none" xmlns="http://www.w3.org/2000/svg" viewBox="0 0 16 16" id="sprite-icon-menu">
    <path fill-rule="evenodd" clip-rule="evenodd" d="M15 7H1V9H15V7ZM1 14H15V12H1V14ZM1 2V4H15V2H1Z"
      fill="currentColor"></path>
  </symbol>
  <symbol fill="none" xmlns="http://www.w3.org/2000/svg" viewBox="0 0 16 16" id="sprite-icon-materials">
    <path d="M12 1H3V3H11C12.1046 3 13 3.89543 13 5V13H15V4C15 2.34315 13.6569 1 12 1Z" fill="currentColor"></path>
    <path
      d="M2 5C1.44772 5 1 5.44772 1 6V14C1 14.5523 1.44772 15 2 15H10C10.5523 15 11 14.5523 11 14V6C11 5.44772 10.5523 5 10 5H2Z"
      fill="currentColor"></path>
  </symbol>
  <symbol fill="none" xmlns="http://www.w3.org/2000/svg" viewBox="0 0 16 16" id="sprite-icon-mail">
    <path d="M2.41421 2L8 7.58579L13.5858 2H2.41421Z" fill="currentColor"></path>
    <path
      d="M1 3.41421V12C1 13.1046 1.89543 14 3 14H13C14.1046 14 15 13.1046 15 12V3.41421L8.70711 9.70711C8.31658 10.0976 7.68342 10.0976 7.29289 9.70711L1 3.41421Z"
      fill="currentColor"></path>
  </symbol>
  <symbol fill="none" xmlns="http://www.w3.org/2000/svg" viewBox="0 0 16 16" id="sprite-icon-login">
    <path fill-rule="evenodd" clip-rule="evenodd"
      d="M13.08 3H3V1H13.08C14.6553 1 16 2.23766 16 3.84615V12.1538C16 13.7623 14.6553 15 13.08 15H3V13H13.08C13.6254 13 14 12.5846 14 12.1538V3.84615C14 3.41544 13.6254 3 13.08 3ZM8.58579 7L7.29289 5.70711L8.70711 4.29289L12.4142 8L8.70711 11.7071L7.29289 10.2929L8.58579 9H2V7H8.58579Z"
      fill="currentColor"></path>
  </symbol>
  <symbol fill="none" xmlns="http://www.w3.org/2000/svg" viewBox="0 0 16 16" id="sprite-icon-loading">
    <path
      d="M2.55573 13.8618L3.91709 12.3966C5.01999 13.4214 6.46341 14 8 14C11.3137 14 14 11.3137 14 8C14 4.68629 11.3137 2 8 2C4.68629 2 2 4.68629 2 8H0C0 3.58172 3.58172 0 8 0C12.4183 0 16 3.58172 16 8C16 12.4183 12.4183 16 8 16C5.95335 16 4.02507 15.227 2.55573 13.8618Z"
      fill="currentColor"></path>
  </symbol>
  <symbol fill="none" xmlns="http://www.w3.org/2000/svg" viewBox="0 0 16 16" id="sprite-icon-list-numbered">
    <path fill-rule="evenodd" clip-rule="evenodd"
      d="M0 13H2V13.5H1V14.5H2V15H0V16H3V12H0V13ZM1 4H2V0H0V1H1V4ZM0 7H1.8L0 9.1V10H3V9H1.2L3 6.9V6H0V7ZM5 1V3H16V1H5ZM5 15H16V13H5V15ZM5 9H16V7H5V9Z"
      fill="currentColor"></path>
  </symbol>
  <symbol fill="none" xmlns="http://www.w3.org/2000/svg" viewBox="0 0 16 16" id="sprite-icon-list-bulled">
    <path
      d="M2 3.5C2.82843 3.5 3.5 2.82843 3.5 2C3.5 1.17157 2.82843 0.5 2 0.5C1.17157 0.5 0.5 1.17157 0.5 2C0.5 2.82843 1.17157 3.5 2 3.5Z"
      fill="currentColor"></path>
    <path d="M16 3H5V1H16V3Z" fill="currentColor"></path>
    <path d="M16 15H5V13H16V15Z" fill="currentColor"></path>
    <path d="M16 9H5V7H16V9Z" fill="currentColor"></path>
    <path
      d="M3.5 8C3.5 8.82843 2.82843 9.5 2 9.5C1.17157 9.5 0.5 8.82843 0.5 8C0.5 7.17157 1.17157 6.5 2 6.5C2.82843 6.5 3.5 7.17157 3.5 8Z"
      fill="currentColor"></path>
    <path
      d="M2 15.5C2.82843 15.5 3.5 14.8284 3.5 14C3.5 13.1716 2.82843 12.5 2 12.5C1.17157 12.5 0.5 13.1716 0.5 14C0.5 14.8284 1.17157 15.5 2 15.5Z"
      fill="currentColor"></path>
  </symbol>
  <symbol fill="none" xmlns="http://www.w3.org/2000/svg" viewBox="0 0 16 16" id="sprite-icon-link">
    <path fill-rule="evenodd" clip-rule="evenodd"
      d="M1.9 8C1.9 6.29 3.29 4.9 5 4.9H7V3H5C2.24 3 0 5.24 0 8C0 10.76 2.24 13 5 13H7V11.1H5C3.29 11.1 1.9 9.71 1.9 8ZM4 9H12V7H4V9ZM11 3H9V4.9H11C12.71 4.9 14.1 6.29 14.1 8C14.1 9.71 12.71 11.1 11 11.1H9V13H11C13.76 13 16 10.76 16 8C16 5.24 13.76 3 11 3Z"
      fill="currentColor"></path>
  </symbol>
  <symbol fill="none" xmlns="http://www.w3.org/2000/svg" viewBox="0 0 16 16" id="sprite-icon-line">
    <path fill-rule="evenodd" clip-rule="evenodd" d="M0 7H16V9H0V7Z" fill="currentColor"></path>
  </symbol>
  <symbol fill="none" xmlns="http://www.w3.org/2000/svg" viewBox="0 0 16 16" id="sprite-icon-italic">
    <path fill-rule="evenodd" clip-rule="evenodd" d="M10.677 4L7.47703 12H10V14H3V12H5.32297L8.52297 4H6V2H13V4H10.677Z"
      fill="currentColor"></path>
  </symbol>
  <symbol fill="none" xmlns="http://www.w3.org/2000/svg" viewBox="0 0 16 16" id="sprite-icon-info">
    <path d="M7 12V7H9V12H7Z" fill="currentColor"></path>
    <path d="M8 6C8.55229 6 9 5.55228 9 5C9 4.44772 8.55229 4 8 4C7.44772 4 7 4.44772 7 5C7 5.55228 7.44772 6 8 6Z"
      fill="currentColor"></path>
    <path fill-rule="evenodd" clip-rule="evenodd"
      d="M0 8C0 12.4183 3.58172 16 8 16C12.4183 16 16 12.4183 16 8C16 3.58172 12.4183 0 8 0C3.58172 0 0 3.58172 0 8ZM14 8C14 11.3137 11.3137 14 8 14C4.68629 14 2 11.3137 2 8C2 4.68629 4.68629 2 8 2C11.3137 2 14 4.68629 14 8Z"
      fill="currentColor"></path>
  </symbol>
  <symbol fill="none" xmlns="http://www.w3.org/2000/svg" viewBox="0 0 16 16" id="sprite-icon-img">
    <path d="M8 6C8 7.10457 7.10457 8 6 8C4.89543 8 4 7.10457 4 6C4 4.89543 4.89543 4 6 4C7.10457 4 8 4.89543 8 6Z"
      fill="currentColor"></path>
    <path fill-rule="evenodd" clip-rule="evenodd"
      d="M3 0H13C14.6569 0 16 1.34315 16 3V13C16 14.6569 14.6569 16 13 16H3C1.34315 16 0 14.6569 0 13V3C0 1.34315 1.34315 0 3 0ZM3 2C2.44772 2 2 2.44772 2 3V11.0861L2.27628 10.8336C3.0405 10.1352 4.21142 10.1354 4.97536 10.8341L5.57522 11.3828C5.95725 11.7322 6.54281 11.7323 6.92491 11.3829L9.27546 9.23386C10.0395 8.53527 11.2105 8.53527 11.9745 9.23386L14 11.0857V3C14 2.44772 13.5523 2 13 2H3Z"
      fill="currentColor"></path>
  </symbol>
  <symbol fill="none" xmlns="http://www.w3.org/2000/svg" viewBox="0 0 16 16" id="sprite-icon-format">
    <g clip-path="url(#clip0_3929_133767)">
      <path
        d="M6.33333 8.85714V14H8V3.71429H9.66667V14H11.3333V3.71429H13V2H6.33333C4.49167 2 3 3.53429 3 5.42857C3 7.32286 4.49167 8.85714 6.33333 8.85714Z"
        fill="currentColor"></path>
    </g>
    <defs>
      <clipPath id="sprite-icon-clip0_3929_133767">
        <rect width="16" height="16" fill="white"></rect>
      </clipPath>
    </defs>
  </symbol>
  <symbol fill="none" xmlns="http://www.w3.org/2000/svg" viewBox="0 0 18 16" id="sprite-icon-font-size">
    <path fill-rule="evenodd" clip-rule="evenodd"
      d="M5.45454 2V4.36364H10.1818V15H12.5454V4.36364H17.2727V2H5.45454ZM0.727264 9.09091H3.0909V15H5.45454V9.09091H7.81817V6.72727H0.727264V9.09091Z"
      fill="currentColor"></path>
  </symbol>
  <symbol fill="none" xmlns="http://www.w3.org/2000/svg" viewBox="0 0 16 16" id="sprite-icon-fire">
    <g clip-path="url(#clip0_3038_365)">
      <path
        d="M12.9867 8.23328C11.94 5.51328 8.21332 5.36662 9.11332 1.41328C9.17999 1.11995 8.86666 0.893285 8.61332 1.04662C6.19332 2.47328 4.45332 5.33328 5.91332 9.07995C6.03332 9.38662 5.67332 9.67328 5.41332 9.47328C4.20666 8.55995 4.07999 7.24662 4.18666 6.30662C4.22666 5.95995 3.77332 5.79328 3.57999 6.07995C3.12666 6.77328 2.66666 7.89328 2.66666 9.57995C2.91999 13.3133 6.07332 14.46 7.20666 14.6066C8.82666 14.8133 10.58 14.5133 11.84 13.36C13.2267 12.0733 13.7333 10.02 12.9867 8.23328Z"
        fill="currentColor"></path>
    </g>
    <defs>
      <clipPath id="sprite-icon-clip0_3038_365">
        <rect width="16" height="16" fill="white"></rect>
      </clipPath>
    </defs>
  </symbol>
  <symbol fill="none" xmlns="http://www.w3.org/2000/svg" viewBox="0 0 16 16" id="sprite-icon-filter-list">
    <path fill-rule="evenodd" clip-rule="evenodd" d="M13 7H3V9H13V7ZM5 14H11V12H5V14ZM1 2V4H15V2H1Z"
      fill="currentColor"></path>
  </symbol>
  <symbol fill="none" xmlns="http://www.w3.org/2000/svg" viewBox="0 0 16 16" id="sprite-icon-file">
    <g clip-path="url(#clip0_3929_133811)">
      <path
        d="M8.77797 4.03443L10.7924 6.0411L11.8891 4.94443L8.00019 1.05554L4.1113 4.94443L5.20797 6.0411L7.22241 4.03443V10.7778H8.77797V4.03443Z"
        fill="currentColor"></path>
      <path
        d="M13.4444 8.83332V12.7222H2.55556V8.83332H4.11111V7.27777H1V12.7222C1 13.5778 1.7 14.2778 2.55556 14.2778H13.4444C14.3 14.2778 15 13.5778 15 12.7222V7.27777H11.8889V8.83332H13.4444Z"
        fill="currentColor"></path>
    </g>
    <defs>
      <clipPath id="sprite-icon-clip0_3929_133811">
        <rect width="16" height="16" fill="white"></rect>
      </clipPath>
    </defs>
  </symbol>
  <symbol fill="none" xmlns="http://www.w3.org/2000/svg" viewBox="0 0 16 16" id="sprite-icon-eye">
    <path
      d="M8 10C6.89333 10 6 9.10667 6 8C6 6.89333 6.89333 6 8 6C9.10667 6 10 6.89333 10 8C10 9.10667 9.10667 10 8 10Z"
      fill="currentColor"></path>
    <path fill-rule="evenodd" clip-rule="evenodd"
      d="M0 8C1.25818 11.512 4.36364 14 8 14C11.6364 14 14.7418 11.512 16 8C14.7418 4.488 11.6364 2 8 2C4.36364 2 1.25818 4.488 0 8ZM4 8C4 5.792 5.792 4 8 4C10.208 4 12 5.792 12 8C12 10.208 10.208 12 8 12C5.792 12 4 10.208 4 8Z"
      fill="currentColor"></path>
  </symbol>
  <symbol fill="none" xmlns="http://www.w3.org/2000/svg" viewBox="0 0 16 16" id="sprite-icon-eye-closed">
    <path d="M13.293 1.29289L14.7072 2.70711L2.70718 14.7071L1.29297 13.2929L13.293 1.29289Z" fill="currentColor">
    </path>
    <path
      d="M8 14C7.05809 14 6.1518 13.8331 5.304 13.5246L6.96423 11.8644C7.29463 11.9528 7.64184 12 8 12C10.208 12 12 10.208 12 8C12 7.64184 11.9528 7.29463 11.8644 6.96423L14.0663 4.76231C14.8982 5.67573 15.5614 6.77564 16 8C14.7418 11.512 11.6364 14 8 14Z"
      fill="currentColor"></path>
    <path
      d="M8 4C8.35829 4 8.70562 4.04718 9.03612 4.13567L10.6963 2.47547C9.84844 2.16697 8.94204 2 8 2C4.36364 2 1.25818 4.488 0 8C0.438668 9.22447 1.10189 10.3245 1.93387 11.2379L4.13568 9.03612C4.04718 8.70562 4 8.35829 4 8C4 5.792 5.792 4 8 4Z"
      fill="currentColor"></path>
  </symbol>
  <symbol fill="none" xmlns="http://www.w3.org/2000/svg" viewBox="0 0 16 16" id="sprite-icon-exit">
    <path fill-rule="evenodd" clip-rule="evenodd"
      d="M3.92 3C3.37457 3 3 3.41544 3 3.84615V12.1538C3 12.5846 3.37457 13 3.92 13H14V15H3.92C2.34466 15 1 13.7623 1 12.1538V3.84615C1 2.23766 2.34466 1 3.92 1H14V3H3.92ZM11.5858 7L10.2929 5.70711L11.7071 4.29289L15.4142 8L11.7071 11.7071L10.2929 10.2929L11.5858 9H5V7H11.5858Z"
      fill="currentColor"></path>
  </symbol>
  <symbol fill="none" xmlns="http://www.w3.org/2000/svg" viewBox="0 0 16 16" id="sprite-icon-edit">
    <path d="M0 16V12.5714L12.5714 0L16 3.42857L3.42857 16H0Z" fill="currentColor"></path>
  </symbol>
  <symbol fill="none" xmlns="http://www.w3.org/2000/svg" viewBox="0 0 17 16" id="sprite-icon-edit-post">
    <path
      d="M14.7792 0.0444336C15.1862 0.0444336 15.5563 0.192035 15.8523 0.487238C16.4443 1.07764 16.4443 2.03705 15.8523 2.62746L8.747 9.71602C8.673 9.80827 8.56199 9.88207 8.45098 9.93742L8.37698 9.97432L6.28639 11.0075C6.21239 11.026 6.13838 11.0444 6.06438 11.0444C5.86087 11.0444 5.67586 10.9706 5.52785 10.823C5.32434 10.6201 5.25034 10.3249 5.32434 10.0666L5.34284 9.99277L6.26789 8.0924L6.36039 7.88945C6.41589 7.77875 6.4899 7.66805 6.5824 7.5758L6.82291 7.33595L13.7062 0.487238C13.9837 0.210485 14.3722 0.0444336 14.7792 0.0444336Z"
      fill="currentColor"></path>
    <path
      d="M12 14V8.53515L14 6.53515V14C14 15.1046 13.1046 16 12 16H2C0.89543 16 0 15.1046 0 14V3.99999C0 2.89542 0.89543 1.99999 2 1.99999H10L8 3.99999H2V14H12Z"
      fill="currentColor"></path>
  </symbol>
  <symbol fill="none" xmlns="http://www.w3.org/2000/svg" viewBox="0 0 17 16" id="sprite-icon-double-arrow-right">
    <path d="M1.41421 0.292908L0 1.70712L6.29289 8.00001L0 14.2929L1.41421 15.7071L9.12132 8.00001L1.41421 0.292908Z"
      fill="currentColor"></path>
    <path d="M8.53531 0L7.12109 1.41421L13.414 7.70711L7.12109 14L8.53531 15.4142L16.2424 7.70711L8.53531 0Z"
      fill="currentColor"></path>
  </symbol>
  <symbol fill="none" xmlns="http://www.w3.org/2000/svg" viewBox="0 0 17 16" id="sprite-icon-double-arrow-left">
    <path d="M14.828 15.4142L16.2422 14L9.94931 7.70711L16.2422 1.41421L14.828 0L7.12088 7.70711L14.828 15.4142Z"
      fill="currentColor"></path>
    <path
      d="M7.70689 15.7071L9.12111 14.2929L2.82821 8.00001L9.12111 1.70712L7.70689 0.292908L-0.000213623 8.00001L7.70689 15.7071Z"
      fill="currentColor"></path>
  </symbol>
  <symbol fill="none" xmlns="http://www.w3.org/2000/svg" viewBox="0 0 16 16" id="sprite-icon-dots-vertical">
    <path
      d="M10 2C10 3.10457 9.10457 4 8 4C6.89543 4 6 3.10457 6 2C6 0.895431 6.89543 0 8 0C9.10457 0 10 0.895431 10 2Z"
      fill="currentColor"></path>
    <path
      d="M10 8C10 9.10457 9.10457 10 8 10C6.89543 10 6 9.10457 6 8C6 6.89543 6.89543 6 8 6C9.10457 6 10 6.89543 10 8Z"
      fill="currentColor"></path>
    <path
      d="M8 16C9.10457 16 10 15.1046 10 14C10 12.8954 9.10457 12 8 12C6.89543 12 6 12.8954 6 14C6 15.1046 6.89543 16 8 16Z"
      fill="currentColor"></path>
  </symbol>
  <symbol fill="none" xmlns="http://www.w3.org/2000/svg" viewBox="0 0 16 16" id="sprite-icon-dots-h">
    <path d="M2 6C3.10457 6 4 6.89543 4 8C4 9.10457 3.10457 10 2 10C0.895431 10 0 9.10457 0 8C0 6.89543 0.895431 6 2 6Z"
      fill="#222222"></path>
    <path
      d="M8 6C9.10457 6 10 6.89543 10 8C10 9.10457 9.10457 10 8 10C6.89543 10 6 9.10457 6 8C6 6.89543 6.89543 6 8 6Z"
      fill="#222222"></path>
    <path
      d="M16 8C16 6.89543 15.1046 6 14 6C12.8954 6 12 6.89543 12 8C12 9.10457 12.8954 10 14 10C15.1046 10 16 9.10457 16 8Z"
      fill="#222222"></path>
  </symbol>
  <symbol fill="none" xmlns="http://www.w3.org/2000/svg" viewBox="0 0 16 16" id="sprite-icon-del">
    <path fill-rule="evenodd" clip-rule="evenodd"
      d="M11 1H14V3H2V1H5L6 0H10L11 1ZM5 16C3.89543 16 3 15.1046 3 14V5H13V14C13 15.1046 12.1046 16 11 16H5Z"
      fill="currentColor"></path>
  </symbol>
  <symbol fill="none" xmlns="http://www.w3.org/2000/svg" viewBox="0 0 16 16" id="sprite-icon-crop">
    <g clip-path="url(#clip0_1350_963)">
      <path
        d="M11.3333 10H12.6667V4.66669C12.6667 3.93335 12.0667 3.33335 11.3333 3.33335H5.99999V4.66669H11.3333V10ZM4.66666 11.3334V0.666687H3.33332V3.33335H0.666656V4.66669H3.33332V11.3334C3.33332 12.0667 3.93332 12.6667 4.66666 12.6667H11.3333V15.3334H12.6667V12.6667H15.3333V11.3334H4.66666Z"
        fill="currentColor"></path>
      <path
        d="M11.3333 10H12.6667V4.66669C12.6667 3.93335 12.0667 3.33335 11.3333 3.33335H5.99999V4.66669H11.3333V10ZM4.66666 11.3334V0.666687H3.33332V3.33335H0.666656V4.66669H3.33332V11.3334C3.33332 12.0667 3.93332 12.6667 4.66666 12.6667H11.3333V15.3334H12.6667V12.6667H15.3333V11.3334H4.66666Z"
        fill="currentColor"></path>
    </g>
    <defs>
      <clipPath id="sprite-icon-clip0_1350_963">
        <rect width="16" height="16" fill="white"></rect>
      </clipPath>
    </defs>
  </symbol>
  <symbol fill="none" xmlns="http://www.w3.org/2000/svg" viewBox="0 0 16 16" id="sprite-icon-content">
    <path fill-rule="evenodd" clip-rule="evenodd"
      d="M0 3C0 1.89543 0.895431 1 2 1H14C15.1046 1 16 1.89543 16 3V11C16 12.1046 15.1046 13 14 13H6.97004L4.70976 15.2773C4.08089 15.911 3 15.4656 3 14.5729V13H2C0.895431 13 0 12.1046 0 11V3ZM3 5C3 4.44772 3.44772 4 4 4H12C12.5523 4 13 4.44772 13 5C13 5.55228 12.5523 6 12 6H4C3.44772 6 3 5.55228 3 5ZM3 9C3 8.44772 3.44772 8 4 8H8C8.55228 8 9 8.44772 9 9C9 9.55228 8.55228 10 8 10H4C3.44772 10 3 9.55228 3 9Z"
      fill="currentColor"></path>
  </symbol>
  <symbol fill="none" xmlns="http://www.w3.org/2000/svg" viewBox="0 0 16 16" id="sprite-icon-construct">
    <path
      d="M10 1C9.44772 1 9 1.44772 9 2V8C9 8.55228 9.44772 9 10 9H14C14.5523 9 15 8.55228 15 8V2C15 1.44772 14.5523 1 14 1H10Z"
      fill="currentColor"></path>
    <path
      d="M2 7C1.44772 7 1 7.44772 1 8V14C1 14.5523 1.44772 15 2 15H6C6.55228 15 7 14.5523 7 14V8C7 7.44772 6.55228 7 6 7H2Z"
      fill="currentColor"></path>
    <path
      d="M1 2C1 1.44772 1.44772 1 2 1H6C6.55228 1 7 1.44772 7 2V4C7 4.55228 6.55228 5 6 5H2C1.44772 5 1 4.55228 1 4V2Z"
      fill="currentColor"></path>
    <path
      d="M10 11C9.44772 11 9 11.4477 9 12V14C9 14.5523 9.44772 15 10 15H14C14.5523 15 15 14.5523 15 14V12C15 11.4477 14.5523 11 14 11H10Z"
      fill="currentColor"></path>
  </symbol>
  <symbol fill="none" xmlns="http://www.w3.org/2000/svg" viewBox="0 0 16 16" id="sprite-icon-computer">
    <path fill-rule="evenodd" clip-rule="evenodd"
      d="M0 2C0 0.895431 0.895431 0 2 0H14C15.1046 0 16 0.895431 16 2V10C16 11.1046 15.1046 12 14 12H2C0.895431 12 0 11.1046 0 10V2ZM2 3C2 2.44772 2.44772 2 3 2H13C13.5523 2 14 2.44772 14 3V9C14 9.55229 13.5523 10 13 10H3C2.44772 10 2 9.55229 2 9V3Z"
      fill="currentColor"></path>
    <path d="M12 14H4V16H12V14Z" fill="currentColor"></path>
  </symbol>
  <symbol fill="none" xmlns="http://www.w3.org/2000/svg" viewBox="0 0 16 16" id="sprite-icon-color-text">
    <path fill-rule="evenodd" clip-rule="evenodd" d="M0 14H16V16H0V14Z" fill="#95BAFF"></path>
    <path fill-rule="evenodd" clip-rule="evenodd"
      d="M7.08083 0L2 12H4.07852L5.11316 9.42857H10.8868L11.9215 12H14L8.92841 0H7.08083ZM5.80597 7.71429L8.00459 2.28857L10.2032 7.71429H5.80597Z"
      fill="currentColor"></path>
  </symbol>
  <symbol fill="none" xmlns="http://www.w3.org/2000/svg" viewBox="0 0 16 16" id="sprite-icon-color-fill">
    <path fill-rule="evenodd" clip-rule="evenodd" d="M0 14H16V16H0V14Z" fill="#95BAFF"></path>
    <path fill-rule="evenodd" clip-rule="evenodd"
      d="M11.7938 6.31059L5.33801 0L4.31982 0.995294L6.03847 2.67529L2.31954 6.31059C1.89349 6.72706 1.89349 7.39765 2.31954 7.80706L6.29121 11.6894C6.50063 11.8941 6.78225 12 7.05666 12C7.33107 12 7.61269 11.8941 7.82211 11.6894L11.7938 7.80706C12.2198 7.39765 12.2198 6.72706 11.7938 6.31059V6.31059ZM3.59767 7.05882L7.05663 3.67765L10.5156 7.05882H3.59767ZM13.5558 8.11765C13.5558 8.11765 12.1115 9.64941 12.1115 10.5882C12.1115 11.3647 12.7614 12 13.5558 12C14.3501 12 15 11.3647 15 10.5882C15 9.64941 13.5558 8.11765 13.5558 8.11765Z"
      fill="currentColor"></path>
  </symbol>
  <symbol fill="none" xmlns="http://www.w3.org/2000/svg" viewBox="0 0 16 16" id="sprite-icon-code">
    <g clip-path="url(#clip0_3929_133804)">
      <path
        d="M5.92 11.8333L2.24 8L5.92 4.16667L4.8 3L0 8L4.8 13L5.92 11.8333ZM10.08 11.8333L13.76 8L10.08 4.16667L11.2 3L16 8L11.2 13L10.08 11.8333V11.8333Z"
        fill="currentColor"></path>
    </g>
    <defs>
      <clipPath id="sprite-icon-clip0_3929_133804">
        <rect width="16" height="16" fill="white"></rect>
      </clipPath>
    </defs>
  </symbol>
  <symbol fill="none" xmlns="http://www.w3.org/2000/svg" viewBox="0 0 16 16" id="sprite-icon-close">
    <path
      d="M9.28446 8L15 13.7155L13.7155 15L8 9.28446L2.28446 15L1 13.7155L6.71554 8L1 2.28446L2.28446 1L8 6.71554L13.7155 1L15 2.28446L9.28446 8Z"
      fill="currentColor"></path>
  </symbol>
  <symbol fill="none" xmlns="http://www.w3.org/2000/svg" viewBox="0 0 16 16" id="sprite-icon-close-small">
    <path
      d="M12.3382 3.65337C12.7027 4.01787 12.7027 4.60882 12.3382 4.97332L9.31811 7.9934L12.3382 11.0135C12.7027 11.378 12.7027 11.9689 12.3382 12.3334C11.9737 12.6979 11.3827 12.6979 11.0183 12.3334L7.99816 9.31334L4.97808 12.3334C4.61358 12.6979 4.02263 12.6979 3.65813 12.3334C3.29364 11.9689 3.29364 11.378 3.65813 11.0135L6.67822 7.9934L3.65814 4.97332C3.29364 4.60882 3.29364 4.01787 3.65813 3.65337C4.02263 3.28888 4.61358 3.28888 4.97808 3.65337L7.99816 6.67346L11.0183 3.65337C11.3827 3.28888 11.9737 3.28888 12.3382 3.65337Z"
      fill="currentColor"></path>
  </symbol>
  <symbol fill="none" xmlns="http://www.w3.org/2000/svg" viewBox="0 0 16 16" id="sprite-icon-close-circle">
    <path
      d="M4.64645 5.35355L7.29289 8L4.64645 10.6464L5.35355 11.3536L8 8.70711L10.6464 11.3536L11.3536 10.6464L8.70711 8L11.3536 5.35355L10.6464 4.64645L8 7.29289L5.35355 4.64645L4.64645 5.35355Z"
      fill="currentColor"></path>
    <path fill-rule="evenodd" clip-rule="evenodd"
      d="M8 16C12.4183 16 16 12.4183 16 8C16 3.58172 12.4183 0 8 0C3.58172 0 0 3.58172 0 8C0 12.4183 3.58172 16 8 16ZM8 15C4.13401 15 1 11.866 1 8C1 4.13401 4.13401 1 8 1C11.866 1 15 4.13401 15 8C15 11.866 11.866 15 8 15Z"
      fill="currentColor"></path>
  </symbol>
  <symbol fill="none" xmlns="http://www.w3.org/2000/svg" viewBox="0 0 16 16" id="sprite-icon-clear">
    <g clip-path="url(#clip0_3929_133770)">
      <path
        d="M8.4 11.75C8.51667 11.75 8.60833 11.7891 8.675 11.8672C8.75833 11.9297 8.8 12.0156 8.8 12.125V12.875C8.8 12.9844 8.75833 13.0703 8.675 13.1328C8.60833 13.2109 8.51667 13.25 8.4 13.25H5.2C5.08333 13.25 4.98333 13.2109 4.9 13.1328C4.83333 13.0703 4.8 12.9844 4.8 12.875V12.125C4.8 12.0156 4.83333 11.9297 4.9 11.8672C4.98333 11.7891 5.08333 11.75 5.2 11.75H6L6.675 9.875L8.35 11.0938L8.125 11.75H8.4ZM15.85 12.7344C15.95 12.8125 16 12.9141 16 13.0391C16 13.1172 15.975 13.1953 15.925 13.2734L15.425 13.8594C15.3417 13.9531 15.2333 14 15.1 14C15.0167 14 14.9417 13.9766 14.875 13.9297L0.15 3.26563C0.05 3.1875 0 3.08594 0 2.96094C0 2.88281 0.025 2.80469 0.075 2.72656L0.575 2.14063C0.658333 2.04688 0.766667 2 0.9 2C0.983333 2 1.05833 2.02344 1.125 2.07031L4 4.15625V3.125C4 3.01563 4.03333 2.92969 4.1 2.86719C4.18333 2.78906 4.28333 2.75 4.4 2.75H14.8C14.9167 2.75 15.0083 2.78906 15.075 2.86719C15.1583 2.92969 15.2 3.01563 15.2 3.125V5.375C15.2 5.48438 15.1583 5.57813 15.075 5.65625C15.0083 5.71875 14.9167 5.75 14.8 5.75H14C13.8833 5.75 13.7833 5.71875 13.7 5.65625C13.6333 5.57813 13.6 5.48438 13.6 5.375V4.625H10.65L9.425 8.09375L15.85 12.7344ZM7.75 6.875L8.55 4.625H5.6V5.30469L7.75 6.875Z"
        fill="currentColor"></path>
    </g>
    <defs>
      <clipPath id="sprite-icon-clip0_3929_133770">
        <rect width="16" height="16" fill="white"></rect>
      </clipPath>
    </defs>
  </symbol>
  <symbol fill="none" xmlns="http://www.w3.org/2000/svg" viewBox="0 0 16 16" id="sprite-icon-check">
    <path
      d="M1.70803 6.29382L0.291992 7.70621L5.99263 13.4216L15.7071 3.70712L14.2929 2.29291L5.99446 10.5914L1.70803 6.29382Z"
      fill="currentColor"></path>
  </symbol>
  <symbol fill="none" xmlns="http://www.w3.org/2000/svg" viewBox="0 0 16 16" id="sprite-icon-category">
    <path
      d="M5 2.5C5 1.67157 5.67157 1 6.5 1H14.5C15.3284 1 16 1.67157 16 2.5C16 3.32843 15.3284 4 14.5 4H6.5C5.67157 4 5 3.32843 5 2.5Z"
      fill="currentColor"></path>
    <path
      d="M1.5 6C0.671573 6 0 6.67157 0 7.5C0 8.32843 0.671573 9 1.5 9C2.32843 9 3 8.32843 3 7.5C3 6.67157 2.32843 6 1.5 6Z"
      fill="currentColor"></path>
    <path
      d="M6.5 6C5.67157 6 5 6.67157 5 7.5C5 8.32843 5.67157 9 6.5 9H14.5C15.3284 9 16 8.32843 16 7.5C16 6.67157 15.3284 6 14.5 6H6.5Z"
      fill="currentColor"></path>
    <path
      d="M5 12.5C5 11.6716 5.67157 11 6.5 11H14.5C15.3284 11 16 11.6716 16 12.5C16 13.3284 15.3284 14 14.5 14H6.5C5.67157 14 5 13.3284 5 12.5Z"
      fill="currentColor"></path>
    <path
      d="M1.5 11C0.671573 11 0 11.6716 0 12.5C0 13.3284 0.671573 14 1.5 14C2.32843 14 3 13.3284 3 12.5C3 11.6716 2.32843 11 1.5 11Z"
      fill="currentColor"></path>
    <path
      d="M1.5 1C0.671573 1 0 1.67157 0 2.5C0 3.32843 0.671573 4 1.5 4C2.32843 4 3 3.32843 3 2.5C3 1.67157 2.32843 1 1.5 1Z"
      fill="currentColor"></path>
  </symbol>
  <symbol fill="none" xmlns="http://www.w3.org/2000/svg" viewBox="0 0 16 16" id="sprite-icon-cards">
    <path
      d="M4 2C3.44772 2 3 2.44772 3 3V3.8H13.1429C13.6951 3.8 14.1429 4.24772 14.1429 4.8V11H15C15.5523 11 16 10.5523 16 10V3C16 2.44772 15.5523 2 15 2H4Z"
      fill="currentColor"></path>
    <path
      d="M0 6C0 5.44772 0.447715 5 1 5H12C12.5523 5 13 5.44772 13 6V13C13 13.5523 12.5523 14 12 14H1C0.447715 14 0 13.5523 0 13V6Z"
      fill="currentColor"></path>
  </symbol>
  <symbol fill="none" xmlns="http://www.w3.org/2000/svg" viewBox="0 0 16 16" id="sprite-icon-calendar">
    <path fill-rule="evenodd" clip-rule="evenodd"
      d="M3 2C3 1.44772 3.44772 1 4 1C4.55228 1 5 1.44772 5 2V3H11V2C11 1.44772 11.4477 1 12 1C12.5523 1 13 1.44772 13 2V3H14C14.5523 3 15 3.44772 15 4V13C15 14.1046 14.1046 15 13 15H3C1.89543 15 1 14.1046 1 13V4C1 3.44772 1.44772 3 2 3H3V2ZM13 7H3V12C3 12.5523 3.44772 13 4 13H12C12.5523 13 13 12.5523 13 12V7Z"
      fill="currentColor"></path>
  </symbol>
  <symbol fill="none" xmlns="http://www.w3.org/2000/svg" viewBox="0 0 16 16" id="sprite-icon-book">
    <path
      d="M14 12H5C4.44772 12 4 12.4477 4 13C4 13.5523 4.44772 14 5 14H14V16H5C3.34315 16 2 14.6569 2 13V2C2 0.89543 2.89543 0 4 0H9V5H11V0H12C13.1046 0 14 0.89543 14 2V12Z"
      fill="currentColor"></path>
  </symbol>
  <symbol fill="none" xmlns="http://www.w3.org/2000/svg" viewBox="0 0 16 16" id="sprite-icon-bold">
    <path fill-rule="evenodd" clip-rule="evenodd"
      d="M10.7 7.835C11.5121 7.30857 12.0814 6.44429 12.0814 5.64286C12.0814 3.86714 10.6163 2.5 8.73256 2.5H3.5V13.5H9.39395C11.1437 13.5 12.5 12.1643 12.5 10.5221C12.5 9.32786 11.78 8.30643 10.7 7.835ZM5.51685 4.46429H8.52326C9.21814 4.46429 9.77907 4.99071 9.77907 5.64286C9.77907 6.295 9.21814 6.82143 8.52326 6.82143H5.51685V4.46429ZM8.94186 11.5357H5.51685V9.17857H8.94186C9.63674 9.17857 10.1977 9.705 10.1977 10.3571C10.1977 11.0093 9.63674 11.5357 8.94186 11.5357Z"
      fill="currentColor"></path>
  </symbol>
  <symbol fill="none" xmlns="http://www.w3.org/2000/svg" viewBox="0 0 16 16" id="sprite-icon-arrow-Up">
    <path d="M2.645 11.645L8 6.30167L13.355 11.645L15 10L8 3L1 10L2.645 11.645Z" fill="currentColor"></path>
  </symbol>
  <symbol fill="none" xmlns="http://www.w3.org/2000/svg" viewBox="0 0 16 16" id="sprite-icon-arrow-right">
    <path d="M4.29291 14.2929L5.70712 15.7071L13.4142 8L5.70712 0.292892L4.29291 1.70711L10.5858 8L4.29291 14.2929Z"
      fill="currentColor"></path>
  </symbol>
  <symbol fill="none" xmlns="http://www.w3.org/2000/svg" viewBox="0 0 16 16" id="sprite-icon-arrow-right-s">
    <path
      d="M11.6464 7.64645C11.8417 7.84171 11.8417 8.15829 11.6464 8.35355L6.85355 13.1464C6.53857 13.4614 6 13.2383 6 12.7929V3.20711C6 2.76165 6.53857 2.53857 6.85355 2.85355L11.6464 7.64645Z"
      fill="currentColor"></path>
  </symbol>
  <symbol fill="none" xmlns="http://www.w3.org/2000/svg" viewBox="0 0 16 16" id="sprite-icon-arrow-right-down">
    <path
      d="M8.35355 10.6464C8.15829 10.8417 7.84171 10.8417 7.64645 10.6464L2.85355 5.85355C2.53857 5.53857 2.76165 5 3.20711 5L12.7929 5C13.2383 5 13.4614 5.53857 13.1464 5.85355L8.35355 10.6464Z"
      fill="currentColor"></path>
  </symbol>
  <symbol fill="none" xmlns="http://www.w3.org/2000/svg" viewBox="0 0 16 16" id="sprite-icon-arrow-left">
    <path d="M12.4142 14.2929L11 15.7071L3.29289 8L11 0.292892L12.4142 1.70711L6.12132 8L12.4142 14.2929Z"
      fill="currentColor"></path>
  </symbol>
  <symbol fill="none" xmlns="http://www.w3.org/2000/svg" viewBox="0 0 16 16" id="sprite-icon-arrow-down">
    <path d="M13.355 4.355L8 9.69833L2.645 4.355L1 6L8 13L15 6L13.355 4.355Z" fill="currentColor"></path>
  </symbol>
  <symbol fill="none" xmlns="http://www.w3.org/2000/svg" viewBox="0 0 16 16" id="sprite-icon-align-left">
    <path fill-rule="evenodd" clip-rule="evenodd" d="M9 13H1V15H9V13ZM9 5H1V7H9V5ZM1 11H15V9H1V11ZM1 1V3H15V1H1Z"
      fill="currentColor"></path>
  </symbol>
  <symbol fill="none" xmlns="http://www.w3.org/2000/svg" viewBox="0 0 16 16" id="sprite-icon-add">
    <path fill-rule="evenodd" clip-rule="evenodd"
      d="M16 8C16 12.4183 12.4183 16 8 16C3.58172 16 0 12.4183 0 8C0 3.58172 3.58172 0 8 0C12.4183 0 16 3.58172 16 8ZM4 9C3.44772 9 3 8.55229 3 8C3 7.44772 3.44772 7 4 7H7V4C7 3.44772 7.44772 3 8 3C8.55229 3 9 3.44772 9 4V7H12C12.5523 7 13 7.44772 13 8C13 8.55229 12.5523 9 12 9H9V12C9 12.5523 8.55229 13 8 13C7.44772 13 7 12.5523 7 12V9H4Z"
      fill="currentColor"></path>
  </symbol>
  <symbol fill="none" xmlns="http://www.w3.org/2000/svg" viewBox="0 0 16 16" id="sprite-icon-24h">
    <path fill-rule="evenodd" clip-rule="evenodd"
      d="M8 15C11.866 15 15 11.866 15 8C15 4.13401 11.866 1 8 1C4.13401 1 1 4.13401 1 8C1 11.866 4.13401 15 8 15ZM9 4V7.58579L11.7904 10.3761L10.3761 11.7904L7 8.41421V4H9Z"
      fill="currentColor"></path>
  </symbol>
</svg>
